<svg xmlns="http://www.w3.org/2000/svg" viewBox="0 0 50 50"><defs><style>.cls-1{fill:#a9e0fc;}.cls-2{fill:#fcfcfc;}.cls-3{fill:#007bff;}</style></defs><title>leaderboard-icon</title><g id="Layer_1" data-name="Layer 1"><path class="cls-1" d="M25,48.77a24,24,0,1,1,24-24A24,24,0,0,1,25,48.77Z" transform="translate(-0.02 0.23)"/><path class="cls-2" d="M25,1.77a23,23,0,1,1-23,23,23,23,0,0,1,23-23m0-2h0a25,25,0,0,0-25,25H0a25,25,0,0,0,25,25h0a25,25,0,0,0,25-25h0a25,25,0,0,0-25-25Z" transform="translate(-0.02 0.23)"/></g><g id="Layer_2" data-name="Layer 2"><ellipse class="cls-3" cx="24.98" cy="19.24" rx="18.8" ry="7.78"/><ellipse class="cls-1" cx="25" cy="19.24" rx="15.36" ry="4.78"/><path class="cls-3" d="M13.68,9.2H36.27a0,0,0,0,1,0,0V20.49A11.29,11.29,0,0,1,25,31.78h0A11.29,11.29,0,0,1,13.68,20.49V9.2a0,0,0,0,1,0,0Z"/><rect class="cls-3" x="23.06" y="21.69" width="3.83" height="21.36"/><path class="cls-3" d="M18.19,40.4H31.77a3.06,3.06,0,0,1,3.06,3.06v1.21a0,0,0,0,1,0,0H15.13a0,0,0,0,1,0,0V43.46A3.06,3.06,0,0,1,18.19,40.4Z"/></g></svg>