<svg id="Layer_2" data-name="Layer 2" xmlns="http://www.w3.org/2000/svg" viewBox="0 0 40.52 45.7"><defs><style>.cls-1{fill:none;stroke:#696b6b;stroke-miterlimit:10;stroke-width:4.5px;}.cls-2{fill:#696b6b;}</style></defs><title>logout-icon</title><path class="cls-1" d="M38.19,8.53a4.41,4.41,0,0,0-4.34-4.48H14.47a4.4,4.4,0,0,0-4.33,4.48V37.25a4.4,4.4,0,0,0,4.33,4.48H33.85a4.41,4.41,0,0,0,4.34-4.48" transform="translate(-7.89 -1.8)"/><path class="cls-2" d="M27.36,47.49,13,41.66a5.12,5.12,0,0,1-2.85-4.85V7.49c0-2.23,1.77-3.87,3.61-3.35l13.61,6.13Z" transform="translate(-7.89 -1.8)"/><rect class="cls-2" x="21.93" y="18.86" width="12.99" height="6.24"/><polygon class="cls-2" points="40.52 21.98 33.11 13.2 33.11 30.76 40.52 21.98 40.52 21.98"/></svg>