<svg id="Layer_2" data-name="Layer 2" xmlns="http://www.w3.org/2000/svg" viewBox="0 0 40.52 45.69"><defs><style>.cls-1{fill:none;stroke:#fff;stroke-miterlimit:10;stroke-width:4.5px;}.cls-2{fill:#fff;}</style></defs><title>logout-icon</title><path class="cls-1" d="M30.3,6.73A4.4,4.4,0,0,0,26,2.25H6.58A4.4,4.4,0,0,0,2.25,6.72h0V35.45a4.4,4.4,0,0,0,4.32,4.48H26a4.4,4.4,0,0,0,4.34-4.48h0" transform="translate(0 0)"/><path class="cls-2" d="M19.47,45.69,5.11,39.86A5.13,5.13,0,0,1,2.26,35V5.69C2.26,3.46,4,1.82,5.87,2.34L19.48,8.47Z" transform="translate(0 0)"/><rect class="cls-2" x="21.93" y="18.86" width="12.99" height="6.24"/><polygon class="cls-2" points="40.52 21.98 33.11 13.2 33.11 30.76 40.52 21.98 40.52 21.98"/></svg>