<svg xmlns="http://www.w3.org/2000/svg" xmlns:xlink="http://www.w3.org/1999/xlink" viewBox="0 0 290.88 139.44"><defs><style>.cls-1{opacity:0.6;fill:url(#linear-gradient);}.cls-2{fill:#fff;}.cls-3{fill:#6dc0d5;}.cls-4,.cls-5{fill:#696b6b;}.cls-4,.cls-6{stroke:#696b6b;stroke-miterlimit:10;}.cls-6{fill:none;stroke-width:6px;}</style><linearGradient id="linear-gradient" y1="63.38" x2="193.49" y2="63.38" gradientUnits="userSpaceOnUse"><stop offset="0" stop-color="#6dc0d5" stop-opacity="0.4"/><stop offset="0.25" stop-color="#6dc0d5" stop-opacity="0.82"/><stop offset="0.36" stop-color="#6dc0d5"/></linearGradient></defs><title>logo-icon1</title><g id="Layer_5" data-name="Layer 5"><polygon class="cls-1" points="88.22 98.26 88.22 62.38 74.1 62.38 74.1 33.97 82.49 33.97 82.49 1.23 21.76 1.23 21.76 32.65 0 32.65 0 65.39 13.83 65.39 13.83 99.92 29.21 99.92 29.21 125.54 193.49 125.54 180.44 101.12 88.22 98.26"/></g><g id="Layer_4" data-name="Layer 4"><rect class="cls-2" x="78.21" y="4.18" width="34.08" height="29.73"/><polygon class="cls-2" points="112.08 42.67 112.08 72.4 146.16 72.4 146.16 43.27 146.85 43.27 146.85 13.54 112.77 13.54 112.77 42.67 112.08 42.67"/><polygon class="cls-2" points="111.88 53.66 77.8 53.66 77.8 83.39 78.21 83.39 78.21 113.13 112.28 113.13 112.28 83.39 111.88 83.39 111.88 53.66"/><polygon class="cls-2" points="146.94 23.75 146.94 53.3 146.94 53.49 146.94 74.45 112.97 74.45 112.97 104.18 145.96 104.18 145.96 113.3 180.04 113.3 180.04 83.57 147.05 83.57 147.05 83.03 181.02 83.03 181.02 53.49 181.02 53.3 181.02 23.75 146.94 23.75"/><rect class="cls-2" x="44.13" y="9.93" width="34.08" height="29.73"/><rect class="cls-2" x="44.82" y="69.41" width="34.08" height="29.73"/><rect class="cls-2" x="44.13" y="38.8" width="34.08" height="29.73"/></g><g id="Layer_1" data-name="Layer 1"><rect class="cls-3" x="60.54" y="45.37" width="13.9" height="31.32" transform="translate(121.79 -35.75) rotate(90)"/><rect class="cls-3" x="59.57" y="74.23" width="13.9" height="31.32" transform="translate(149.68 -5.9) rotate(90)"/><rect class="cls-3" x="60.26" y="103.96" width="13.9" height="31.32" transform="translate(180.1 23.14) rotate(90)"/><rect class="cls-3" x="130.28" y="49.52" width="13.9" height="31.32" transform="translate(195.68 -101.33) rotate(90)"/><rect class="cls-3" x="129.3" y="78.39" width="13.9" height="31.32" transform="translate(223.57 -71.49) rotate(90)"/><rect class="cls-3" x="129.99" y="108.12" width="13.9" height="31.32" transform="translate(253.99 -42.44) rotate(90)"/><rect class="cls-3" x="163.67" y="58.93" width="13.9" height="31.32" transform="translate(238.48 -125.31) rotate(90)"/><rect class="cls-3" x="162.69" y="87.79" width="13.9" height="31.32" transform="translate(266.37 -95.47) rotate(90)"/><rect class="cls-3" x="163.38" y="117.53" width="13.9" height="31.32" transform="translate(296.79 -66.43) rotate(90)"/><rect class="cls-3" x="95.02" y="39.33" width="13.9" height="31.32" transform="translate(150.23 -76.27) rotate(90)"/><rect class="cls-3" x="92.63" y="56.73" width="18.29" height="31.32" transform="translate(167.44 -58.66) rotate(90)"/><rect class="cls-3" x="95.47" y="88.84" width="13.9" height="31.32" transform="translate(200.19 -27.2) rotate(90)"/><rect class="cls-3" x="96.16" y="118.57" width="13.9" height="31.32" transform="translate(230.61 1.84) rotate(90)"/><rect class="cls-3" x="64.54" y="108.78" width="6.71" height="31.32" transform="translate(185.6 27.26) rotate(90)"/></g><g id="Layer_2" data-name="Layer 2"><polygon class="cls-3" points="207.32 85.42 181.95 71.41 181.8 54.02 207.32 68.79 207.32 85.42"/><polygon class="cls-3" points="207.47 120.36 182.1 106.36 181.95 88.97 207.47 103.74 207.47 120.36"/><polygon class="cls-2" points="207.12 101.12 181.75 87.11 181.59 69.72 207.12 84.49 207.12 101.12"/><polygon class="cls-2" points="207.12 69.36 181.75 55.35 181.59 37.96 207.12 52.74 207.12 69.36"/><polygon class="cls-2" points="208.63 36.92 181.59 22 187.1 14.49 206.63 17.95 208.63 36.92"/><polygon class="cls-2" points="201.19 125.54 181.95 121.88 181.53 107.44 205.61 118.66 201.19 125.54"/><polygon class="cls-3" points="208.63 52.62 181.95 38.61 181.8 21.22 208.63 35.99 208.63 52.62"/><path class="cls-4" d="M207.92,44.88V36.67a6.12,6.12,0,0,0-.11-1.14h11.95l16.57,63.55a2.81,2.81,0,0,0,.33.75,2.84,2.84,0,0,0,2.79,2.3H264a2.85,2.85,0,0,0,2.85,2.8h27.45a2.84,2.84,0,0,0,2.85-2.85V96.47a2.84,2.84,0,0,0-2.85-2.84H266.81a2.85,2.85,0,0,0-2.85,2.8H241.8L225,31.9a2.83,2.83,0,0,0-3.31-2.06H200.19a2.83,2.83,0,0,0-1.53.45,6.83,6.83,0,0,0-4.4,6.38v8" transform="translate(-6.73 -29.28)"/><path class="cls-5" d="M207.92,153.19v8.7a6.83,6.83,0,0,1-6.83,6.83h0a6.83,6.83,0,0,1-6.83-6.83v-8.21" transform="translate(-6.73 -29.28)"/><rect class="cls-6" x="180.44" y="15.4" width="27.83" height="109.19" rx="8.95"/><rect class="cls-6" x="146.36" y="23.21" width="34.08" height="29.73"/><rect class="cls-6" x="146.36" y="53.66" width="34.08" height="29.73"/><rect class="cls-6" x="146.36" y="83.39" width="34.08" height="29.73"/><rect class="cls-6" x="112.28" y="13.54" width="34.08" height="29.73"/><rect class="cls-6" x="112.28" y="43.99" width="34.08" height="29.73"/><rect class="cls-6" x="112.28" y="73.72" width="34.08" height="29.73"/><rect class="cls-6" x="44.13" y="9.93" width="34.08" height="29.73"/><rect class="cls-6" x="44.13" y="40.38" width="34.08" height="29.73"/><rect class="cls-6" x="44.13" y="70.12" width="34.08" height="29.73"/><rect class="cls-6" x="78.21" y="53.66" width="34.08" height="29.73"/><rect class="cls-6" x="78.21" y="83.39" width="34.08" height="29.73"/><rect class="cls-6" x="78.21" y="4.18" width="34.08" height="29.73"/></g><g id="Layer_3" data-name="Layer 3"><rect class="cls-5" x="184.74" y="55.43" width="34.11" height="5.69" rx="2.85" transform="matrix(0.87, 0.5, -0.5, 0.87, 49.45, -122.37)"/><rect class="cls-5" x="184.31" y="72.4" width="34.11" height="5.69" rx="2.85" transform="translate(57.87 -119.88) rotate(30)"/><rect class="cls-5" x="184.31" y="88.53" width="34.11" height="5.69" rx="2.85" transform="translate(65.94 -117.72) rotate(30)"/><rect class="cls-5" x="183.98" y="105.18" width="34.92" height="5.69" rx="2.85" transform="translate(74.27 -115.53) rotate(30)"/><rect class="cls-5" x="183.98" y="121.83" width="34.92" height="5.69" rx="2.85" transform="translate(82.6 -113.3) rotate(30)"/><rect class="cls-5" x="183.95" y="138.77" width="32.53" height="5.69" rx="2.85" transform="translate(90.9 -110.42) rotate(30)"/></g></svg>